<mxfile host="app.diagrams.net" modified="2022-12-30T08:33:58.150Z" agent="5.0 (Windows NT 10.0; Win64; x64) AppleWebKit/537.36 (KHTML, like Gecko) Chrome/108.0.0.0 Safari/537.36 Edg/108.0.1462.54" etag="jmHj8w1JPH8ofLwQxRO-" version="20.0.4" type="github">
  <diagram id="_bSj1Ir8yUZKhO_GbRls" name="第 1 页">
    <mxGraphModel dx="1038" dy="547" grid="1" gridSize="10" guides="1" tooltips="1" connect="1" arrows="1" fold="1" page="1" pageScale="1" pageWidth="827" pageHeight="1169" math="0" shadow="0">
      <root>
        <mxCell id="0" />
        <mxCell id="1" parent="0" />
        <mxCell id="8CNB_ZAw6W4wUNGd13Tx-11" style="edgeStyle=none;rounded=0;orthogonalLoop=1;jettySize=auto;html=1;exitX=0.5;exitY=1;exitDx=0;exitDy=0;exitPerimeter=0;entryX=0.5;entryY=0;entryDx=0;entryDy=0;strokeWidth=2;fillColor=#1ba1e2;strokeColor=#006EAF;" parent="1" source="8CNB_ZAw6W4wUNGd13Tx-1" target="8CNB_ZAw6W4wUNGd13Tx-5" edge="1">
          <mxGeometry relative="1" as="geometry" />
        </mxCell>
        <mxCell id="8CNB_ZAw6W4wUNGd13Tx-51" style="edgeStyle=orthogonalEdgeStyle;rounded=0;orthogonalLoop=1;jettySize=auto;html=1;exitX=0.87;exitY=0.65;exitDx=0;exitDy=0;exitPerimeter=0;entryX=0.5;entryY=0;entryDx=0;entryDy=0;strokeColor=#006EAF;strokeWidth=2;fillColor=#1ba1e2;" parent="1" source="8CNB_ZAw6W4wUNGd13Tx-1" target="8CNB_ZAw6W4wUNGd13Tx-6" edge="1">
          <mxGeometry relative="1" as="geometry">
            <Array as="points">
              <mxPoint x="490" y="93" />
              <mxPoint x="490" y="229" />
              <mxPoint x="410" y="229" />
            </Array>
          </mxGeometry>
        </mxCell>
        <mxCell id="8CNB_ZAw6W4wUNGd13Tx-1" value="" style="verticalLabelPosition=bottom;html=1;verticalAlign=top;align=center;strokeColor=none;fillColor=#00BEF2;shape=mxgraph.azure.user;" parent="1" vertex="1">
          <mxGeometry x="386.25" y="60" width="47.5" height="50" as="geometry" />
        </mxCell>
        <mxCell id="8CNB_ZAw6W4wUNGd13Tx-14" style="edgeStyle=none;rounded=0;orthogonalLoop=1;jettySize=auto;html=1;entryX=0.5;entryY=1;entryDx=0;entryDy=0;fillColor=#fa6800;strokeColor=#C73500;strokeWidth=2;exitX=0.5;exitY=0;exitDx=0;exitDy=0;exitPerimeter=0;" parent="1" source="8CNB_ZAw6W4wUNGd13Tx-4" target="8CNB_ZAw6W4wUNGd13Tx-6" edge="1">
          <mxGeometry relative="1" as="geometry">
            <mxPoint x="400" y="369" as="sourcePoint" />
          </mxGeometry>
        </mxCell>
        <mxCell id="8CNB_ZAw6W4wUNGd13Tx-4" value="" style="verticalLabelPosition=bottom;html=1;verticalAlign=top;align=center;strokeColor=none;fillColor=#00BEF2;shape=mxgraph.azure.user;" parent="1" vertex="1">
          <mxGeometry x="386.25" y="348" width="47.5" height="50" as="geometry" />
        </mxCell>
        <mxCell id="8CNB_ZAw6W4wUNGd13Tx-45" style="edgeStyle=orthogonalEdgeStyle;curved=1;rounded=0;orthogonalLoop=1;jettySize=auto;html=1;exitX=0;exitY=0.5;exitDx=0;exitDy=0;strokeColor=#006EAF;strokeWidth=2;fillColor=#1ba1e2;dashed=1;entryX=1;entryY=0.5;entryDx=0;entryDy=0;" parent="1" source="8CNB_ZAw6W4wUNGd13Tx-5" target="rFT1lLvTd1InfwVpWufC-6" edge="1">
          <mxGeometry relative="1" as="geometry">
            <mxPoint x="220" y="154" as="targetPoint" />
          </mxGeometry>
        </mxCell>
        <mxCell id="8CNB_ZAw6W4wUNGd13Tx-46" style="edgeStyle=orthogonalEdgeStyle;curved=1;rounded=0;orthogonalLoop=1;jettySize=auto;html=1;exitX=0;exitY=0.5;exitDx=0;exitDy=0;entryX=1;entryY=0.5;entryDx=0;entryDy=0;strokeColor=#006EAF;strokeWidth=2;fillColor=#1ba1e2;dashed=1;" parent="1" source="8CNB_ZAw6W4wUNGd13Tx-5" target="rFT1lLvTd1InfwVpWufC-8" edge="1">
          <mxGeometry relative="1" as="geometry">
            <mxPoint x="220" y="329" as="targetPoint" />
          </mxGeometry>
        </mxCell>
        <mxCell id="8CNB_ZAw6W4wUNGd13Tx-47" style="edgeStyle=orthogonalEdgeStyle;curved=1;rounded=0;orthogonalLoop=1;jettySize=auto;html=1;exitX=1;exitY=0.5;exitDx=0;exitDy=0;entryX=0;entryY=0.5;entryDx=0;entryDy=0;strokeColor=#006EAF;strokeWidth=2;fillColor=#1ba1e2;dashed=1;" parent="1" source="8CNB_ZAw6W4wUNGd13Tx-5" target="rFT1lLvTd1InfwVpWufC-1" edge="1">
          <mxGeometry relative="1" as="geometry">
            <mxPoint x="610" y="184" as="targetPoint" />
          </mxGeometry>
        </mxCell>
        <mxCell id="8CNB_ZAw6W4wUNGd13Tx-5" value="角色 1" style="ellipse;whiteSpace=wrap;html=1;" parent="1" vertex="1">
          <mxGeometry x="360" y="144" width="100" height="60" as="geometry" />
        </mxCell>
        <mxCell id="8CNB_ZAw6W4wUNGd13Tx-48" style="edgeStyle=orthogonalEdgeStyle;curved=1;rounded=0;orthogonalLoop=1;jettySize=auto;html=1;exitX=1;exitY=0.5;exitDx=0;exitDy=0;entryX=0;entryY=0.5;entryDx=0;entryDy=0;strokeColor=#C73500;strokeWidth=2;fillColor=#fa6800;dashed=1;" parent="1" source="8CNB_ZAw6W4wUNGd13Tx-6" target="rFT1lLvTd1InfwVpWufC-10" edge="1">
          <mxGeometry relative="1" as="geometry">
            <mxPoint x="610.8400000000001" y="337.19000000000005" as="targetPoint" />
          </mxGeometry>
        </mxCell>
        <mxCell id="rFT1lLvTd1InfwVpWufC-11" style="edgeStyle=orthogonalEdgeStyle;rounded=0;orthogonalLoop=1;jettySize=auto;html=1;exitX=0;exitY=0.5;exitDx=0;exitDy=0;entryX=1;entryY=0.5;entryDx=0;entryDy=0;curved=1;dashed=1;strokeWidth=2;fillColor=#e51400;strokeColor=#B20000;" parent="1" source="8CNB_ZAw6W4wUNGd13Tx-6" target="rFT1lLvTd1InfwVpWufC-9" edge="1">
          <mxGeometry relative="1" as="geometry" />
        </mxCell>
        <mxCell id="rFT1lLvTd1InfwVpWufC-12" style="edgeStyle=orthogonalEdgeStyle;curved=1;rounded=0;orthogonalLoop=1;jettySize=auto;html=1;exitX=1;exitY=0.5;exitDx=0;exitDy=0;entryX=0;entryY=0.5;entryDx=0;entryDy=0;dashed=1;strokeWidth=2;fillColor=#e51400;strokeColor=#B20000;" parent="1" source="8CNB_ZAw6W4wUNGd13Tx-6" target="rFT1lLvTd1InfwVpWufC-1" edge="1">
          <mxGeometry relative="1" as="geometry">
            <Array as="points">
              <mxPoint x="550" y="285" />
              <mxPoint x="550" y="132" />
            </Array>
          </mxGeometry>
        </mxCell>
        <mxCell id="8CNB_ZAw6W4wUNGd13Tx-6" value="角色 2" style="ellipse;whiteSpace=wrap;html=1;" parent="1" vertex="1">
          <mxGeometry x="360" y="255" width="100" height="60" as="geometry" />
        </mxCell>
        <mxCell id="8CNB_ZAw6W4wUNGd13Tx-36" value="系统 2,3,4,5" style="swimlane;startSize=23;" parent="1" vertex="1">
          <mxGeometry x="574" y="64" width="180" height="335" as="geometry" />
        </mxCell>
        <mxCell id="rFT1lLvTd1InfwVpWufC-1" value="权限 1" style="rounded=1;whiteSpace=wrap;html=1;fillColor=#ffe6cc;strokeColor=#d79b00;" parent="8CNB_ZAw6W4wUNGd13Tx-36" vertex="1">
          <mxGeometry x="30" y="46" width="120" height="44" as="geometry" />
        </mxCell>
        <mxCell id="rFT1lLvTd1InfwVpWufC-2" value="权限 2" style="rounded=1;whiteSpace=wrap;html=1;fillColor=#fff2cc;strokeColor=#d6b656;" parent="8CNB_ZAw6W4wUNGd13Tx-36" vertex="1">
          <mxGeometry x="30" y="120" width="120" height="44" as="geometry" />
        </mxCell>
        <mxCell id="rFT1lLvTd1InfwVpWufC-4" value="权限 4" style="rounded=1;whiteSpace=wrap;html=1;fillColor=#e1d5e7;strokeColor=#9673a6;" parent="8CNB_ZAw6W4wUNGd13Tx-36" vertex="1">
          <mxGeometry x="30" y="266" width="120" height="44" as="geometry" />
        </mxCell>
        <mxCell id="rFT1lLvTd1InfwVpWufC-10" value="权限 3" style="rounded=1;whiteSpace=wrap;html=1;fillColor=#f8cecc;strokeColor=#b85450;" parent="8CNB_ZAw6W4wUNGd13Tx-36" vertex="1">
          <mxGeometry x="30" y="194" width="120" height="44" as="geometry" />
        </mxCell>
        <mxCell id="rFT1lLvTd1InfwVpWufC-5" value="系统 1" style="swimlane;" parent="1" vertex="1">
          <mxGeometry x="70" y="64" width="180" height="335" as="geometry" />
        </mxCell>
        <mxCell id="rFT1lLvTd1InfwVpWufC-6" value="权限 1" style="rounded=1;whiteSpace=wrap;html=1;" parent="rFT1lLvTd1InfwVpWufC-5" vertex="1">
          <mxGeometry x="30" y="46" width="120" height="44" as="geometry" />
        </mxCell>
        <mxCell id="rFT1lLvTd1InfwVpWufC-7" value="权限 2" style="rounded=1;whiteSpace=wrap;html=1;fillColor=#f5f5f5;fontColor=#333333;strokeColor=#666666;" parent="rFT1lLvTd1InfwVpWufC-5" vertex="1">
          <mxGeometry x="30" y="120" width="120" height="44" as="geometry" />
        </mxCell>
        <mxCell id="rFT1lLvTd1InfwVpWufC-8" value="权限 3" style="rounded=1;whiteSpace=wrap;html=1;fillColor=#dae8fc;strokeColor=#6c8ebf;" parent="rFT1lLvTd1InfwVpWufC-5" vertex="1">
          <mxGeometry x="30" y="196" width="120" height="44" as="geometry" />
        </mxCell>
        <mxCell id="rFT1lLvTd1InfwVpWufC-9" value="权限 4" style="rounded=1;whiteSpace=wrap;html=1;fillColor=#d5e8d4;strokeColor=#82b366;" parent="rFT1lLvTd1InfwVpWufC-5" vertex="1">
          <mxGeometry x="30" y="266" width="120" height="44" as="geometry" />
        </mxCell>
      </root>
    </mxGraphModel>
  </diagram>
</mxfile>
